<svg viewBox="0 0 400 400" width="400" xmlns="http://www.w3.org/2000/svg"><g fill="none" fill-rule="evenodd"><path d="m0 0h400v400h-400z" fill="#1e1e1e"/><path d="m0 0h400v400h-400z" fill="#1e1e1e"/><g transform="translate(52 135)"><path d="m218 113.202247v-20.2668537h10.934579v16.2499997c3.280391 2.79964 7.228949 5.173211 11.845795 7.120787 4.616845 1.947575 9.962586 2.921348 16.037383 2.921348 3.644878 0 7.137834-.547747 10.478972-1.643258s6.28737-2.677893 8.838785-4.747191c2.551415-2.069299 4.616815-4.655884 6.196262-7.759832s2.369159-6.6034448 2.369159-10.4985953c0-6.69479-1.488303-11.8679593-4.464954-15.5196629-2.97665-3.6517037-6.742968-6.4817316-11.299065-8.4901686-4.556098-2.008437-9.476609-3.6821094-14.761682-5.0210674-5.285074-1.338958-10.235959-3.134352-14.852804-5.3862359-4.616846-2.251884-8.474284-5.3253551-11.57243-9.2205057-3.098146-3.8951505-4.76869-9.4943455-5.011682-16.7977528-.121496-4.016874.394854-8.0641182 1.549065-12.1418539 1.154212-4.0777358 3.098117-7.7293846 5.831776-10.9550562 2.733658-3.22567154 6.317735-5.87311698 10.752336-7.94241572 4.434602-2.06929873 9.871463-3.10393258 16.310748-3.10393258 4.252358 0 9.112122.57817774 14.579439 1.73455056s10.934552 3.92553989 16.401869 8.30758424v18.8061798h-10.934579v-13.3286517c-2.308423-1.338958-5.163534-2.4344526-8.565421-3.2865168-3.401886-.8520642-7.22895-1.2780899-11.481308-1.2780899-3.88787 0-7.289705.6390385-10.205607 1.9171348-2.915903 1.2780963-5.315412 2.9517687-7.198599 5.0210674-1.883187 2.0692988-3.310742 4.4733009-4.28271 7.2120787-.971967 2.7387777-1.457944 5.6296664-1.457944 8.6727528 0 5.355832 1.518677 9.4335066 4.556075 12.2331461 3.037398 2.7996394 6.834089 5.08192 11.390187 6.8469101 4.556097 1.7649901 9.506982 3.3778017 14.852804 4.8384831 5.345821 1.4606815 10.327079 3.5603796 14.943925 6.2991573 4.616845 2.7387778 8.474283 6.4512874 11.57243 11.1376405 3.098146 4.686353 4.647196 11.1071689 4.647196 19.2626404 0 5.4775555-1.002326 10.4072816-3.007009 14.7893256-2.004683 4.382045-4.738301 8.124985-8.200935 11.228933s-7.502313 5.47752-12.119159 7.120786c-4.616845 1.643267-9.537357 2.464888-14.761682 2.464888-4.738341 0-9.172877-.486887-13.303738-1.460674-4.130862-.973788-7.927553-2.282295-11.390187-3.925562s-6.499987-3.438661-9.11215-5.386236c-2.612162-1.947575-4.647189-3.955982-6.10514-6.025281z" fill="#efefef"/><g transform="translate(144 45)"><path d="m36.039919 40.5856289h17.2860923v6.6122473h-10.5219692v12.7367058c0 2.709951-.4652525 5.2211346-1.3957715 7.533626l7.6230594 12.3573146-5.2609847 3.4687199-5.5830857-9.2137872c-2.0041946 2.5292876-4.4557173 4.4984891-7.3546417 5.9076636s-6.0662202 2.1137512-9.5019824 2.1137512c-2.9347136 0-5.6904399-.5600482-8.2672616-1.6801612-2.5768216-1.1201131-4.83150679-2.6376629-6.76412305-4.5526949s-3.45363401-4.1552245-4.5630989-6.7206448c-1.10946489-2.5654202-1.66418901-5.3295287-1.66418901-8.2924084 0-2.601553.44735816-5.0585383 1.34208791-7.3710298s2.11154396-4.3900894 3.65047912-6.232856c1.53893517-1.8427667 3.36415648-3.3964486 5.47571873-4.6610924 2.1115622-1.2646438 4.4199303-2.113749 6.9251736-2.5473412l-7.62305936-12.5741096c-1.28841084-2.1679607-2.20102149-4.4081532-2.73785934-6.7206447s-.60841516-4.5707501-.21473407-6.7748436c.39368109-2.2040934 1.23471444-4.29975739 2.52312528-6.28705476 1.28841079-1.98729737 3.11363219-3.7035739 5.47571869-5.14888108 2.0041946-1.2285111 4.0620422-1.96921992 6.1736044-2.22214868 2.1115622-.25292875 4.1694097-.18066448 6.1736044.216795 2.0041946.39745947 3.8830989.99363974 5.6367692 1.78855869s3.3104767 1.62595811 4.6704659 2.49314242l-2.6841758 5.31147731c-1.0020973-.57812286-2.1473342-1.17430313-3.435745-1.78855868-1.2884109-.61425555-2.612591-1.08397334-3.9725803-1.40916745-1.3599892-.32519412-2.7378523-.43359053-4.1336307-.32519249s-2.7020643.56004976-3.9188967 1.3549687c-3.4357623 2.16796082-5.3325609 4.87787112-5.6904528 8.12981222-.3578919 3.2519412.3936698 6.4677014 2.2547077 9.6473772l19.2186989 31.652069c.5726271-1.0117151.8589363-2.059547.8589363-3.1435274z" fill="#efefef"/><path d="m3.65086404 61.6659298c0 2.0956954.35788653 4.0287648 1.07367033 5.7992661s1.71786608 3.3241832 3.00627692 4.6610923c1.28841084 1.3369092 2.82732291 2.3847412 4.61678241 3.1435274 1.7894595.7587863 3.7220468 1.1381738 5.7978198 1.1381738 3.0062919 0 5.6188636-.7226428 7.8377934-2.16795s3.9367851-3.3241783 5.1536176-5.6366698l-12.991411-21.4627043c-4.2947028.1445307-7.7840965 1.535618-10.46828573 4.1733036-2.68418924 2.6376856-4.02626373 6.0883048-4.02626373 10.3519609z" fill="#1e1e1e"/></g><path d="m84.6715328 2h40.3284672v10.8857143h-14.233577v105.4099997h14.233577v10.704286h-40.3284672v-10.704286h14.5985402v-47.8971426h-73.540146v47.8971426h14.7810219v10.704286h-40.5109489v-10.704286h14.2335766v-105.4099997h-14.2335766v-10.8857143h40.5109489v10.8857143h-14.7810219v46.8085714h73.540146v-46.8085714h-14.5985402z" fill="#efefef"/></g></g></svg>
