<?xml version="1.0" encoding="UTF-8"?>
<svg width="400px" height="400px" viewBox="0 0 400 400" version="1.1" xmlns="http://www.w3.org/2000/svg" xmlns:xlink="http://www.w3.org/1999/xlink" style="background: #1E1E1E;">
    <!-- Generator: Sketch 46.2 (44496) - http://www.bohemiancoding.com/sketch -->
    <title>Favicon</title>
    <desc>Created with Sketch.</desc>
    <defs></defs>
    <g id="Page-1" stroke="none" stroke-width="1" fill="none" fill-rule="evenodd">
        <g id="Favicon">
            <rect id="Rectangle" fill="#1E1E1E" x="0" y="0" width="400" height="400"></rect>
            <g id="Initials" transform="translate(11.000000, 118.000000)">
                <path d="M279,143.679775 L279,117.956461 L292.878505,117.956461 L292.878505,138.581461 C297.042077,142.134849 302.053709,145.14746 307.913551,147.619382 C313.773394,150.091304 320.558373,151.327247 328.268692,151.327247 C332.894883,151.327247 337.32825,150.632029 341.568925,149.241573 C345.809601,147.851117 349.549049,145.84271 352.787383,143.216292 C356.025717,140.589875 358.647186,137.306902 360.651869,133.367275 C362.656552,129.427649 363.658879,124.98598 363.658879,120.042135 C363.658879,111.544901 361.769879,104.978956 357.991822,100.344101 C354.213766,95.7092465 349.43344,92.117288 343.650701,89.568118 C337.867962,87.0189479 331.622697,84.8946714 324.91472,83.1952247 C318.206742,81.495778 311.922926,79.2170087 306.063084,76.3588483 C300.203242,73.500688 295.307263,69.5997438 291.375,64.6558989 C287.442737,59.7120539 285.322431,52.6053834 285.014019,43.3356742 C284.859812,38.2373341 285.51518,33.1004472 286.98014,27.9248596 C288.445101,22.7492719 290.912366,18.1144868 294.382009,14.0203652 C297.851653,9.92624357 302.400673,6.56602437 308.029206,3.93960674 C313.657738,1.31318912 320.55837,0 328.731308,0 C334.128532,0 340.296694,0.733840976 347.235981,2.20154494 C354.175268,3.66924891 361.114451,7.18396096 368.053738,12.7457865 L368.053738,36.6151685 L354.175234,36.6151685 L354.175234,19.6980337 C351.245312,17.998587 347.621517,16.6081515 343.303738,15.5266854 C338.98596,14.4452193 334.128532,13.9044944 328.731308,13.9044944 C323.796704,13.9044944 319.47899,14.7155818 315.778037,16.3377809 C312.077084,17.95998 309.031554,20.0842565 306.641355,22.7106742 C304.251156,25.3370918 302.439259,28.3883253 301.205607,31.8644663 C299.971956,35.3406073 299.35514,39.0098121 299.35514,42.872191 C299.35514,49.6699778 301.282691,54.8454879 305.13785,58.3988764 C308.99301,61.952265 313.811887,64.8490057 319.594626,67.0891854 C325.377365,69.3293651 331.661181,71.3763952 338.446262,73.2303371 C345.231342,75.0842789 351.553709,77.7492804 357.413551,81.2254213 C363.273394,84.7015623 368.169373,89.4135939 372.101636,95.3616573 C376.033898,101.309721 378,109.459218 378,119.810393 C378,126.762675 376.727816,133.019635 374.183411,138.581461 C371.639006,144.143286 368.169414,148.893941 363.774533,152.833567 C359.379651,156.773194 354.252366,159.785804 348.392523,161.871489 C342.532681,163.957173 336.287416,165 329.656542,165 C323.642493,165 318.014045,164.382029 312.771028,163.146067 C307.528011,161.910106 302.709134,160.249308 298.314252,158.163624 C293.919371,156.077939 290.064269,153.79917 286.748832,151.327247 C283.433395,148.855325 280.850477,146.306193 279,143.679775 Z" id="Path" fill="#EFEFEF"></path>
                <g id="Group" transform="translate(184.000000, 57.000000)">
                    <path d="M46.0510076,51.6983606 L68.1387922,51.6983606 L68.1387922,60.1211042 L54.6940537,60.1211042 L54.6940537,76.3452414 C54.6940537,79.7972027 54.0995644,82.9959723 52.910568,85.941646 L62.6511438,101.682511 L55.9287746,106.100999 L48.7948318,94.3643895 C46.2339164,97.5862201 43.1014151,100.094608 39.397234,101.889628 C35.6930528,103.684648 31.6459526,104.582144 27.255812,104.582144 C23.5059002,104.582144 19.9846944,103.868749 16.6920889,102.441939 C13.3994834,101.015128 10.5184969,99.0820586 8.04904275,96.6426726 C5.57958865,94.2032866 3.63606596,91.349708 2.21841638,88.0818513 C0.800766803,84.8139945 0.0919526456,81.2930468 0.0919526456,77.5189024 C0.0919526456,74.2050195 0.663576966,71.0752882 1.80684276,68.1296145 C2.95010854,65.1839408 4.5049267,62.5374768 6.47134385,60.1901431 C8.43776101,57.8428094 10.7699882,55.8637146 13.4680955,54.2527993 C16.1662028,52.641884 19.1157843,51.5602856 22.3169285,51.0079718 L12.5763526,34.9909513 C10.9300499,32.2293822 9.76393629,29.3758036 9.07797682,26.43013 C8.39201735,23.4844563 8.30055745,20.607865 8.8035944,17.8002697 C9.30663135,14.9926745 10.3812851,12.3231978 12.0275878,9.79175947 C13.6738905,7.26032115 16.0061178,5.07411176 19.0243395,3.23306571 C21.5852548,1.66817657 24.2147267,0.724654622 26.912834,0.402471563 C29.6109412,0.0802885045 32.2404131,0.172339426 34.8013285,0.67862709 C37.3622438,1.18491475 39.763066,1.94433486 42.0038669,2.95691019 C44.2446679,3.96948551 46.2339205,5.02807111 47.9716845,6.13269874 L44.5419043,12.8985091 C43.2614466,12.1620907 41.7980883,11.4026706 40.1517856,10.6202261 C38.5054829,9.83778148 36.8134749,9.23945049 35.0757109,8.82521513 C33.3379469,8.41097977 31.577344,8.27290338 29.7938493,8.41098184 C28.0103547,8.54906029 26.3412117,9.12437855 24.7863702,10.1369539 C20.3962296,12.898523 17.9725425,16.3504325 17.5152362,20.4927861 C17.0579298,24.6351397 18.0182587,28.7314058 20.3962515,32.7817071 L44.9534779,73.100414 C45.685168,71.8116817 46.0510076,70.4769434 46.0510076,69.0961588 L46.0510076,51.6983606 Z" id="Path" fill="#EFEFEF"></path>
                    <path d="M4.66499294,78.5506487 C4.66499294,81.2201655 5.12229239,83.6825276 6.03690503,85.9378091 C6.95151766,88.1930905 8.23195613,90.1721853 9.87825887,91.8751529 C11.5245616,93.5781205 13.4909493,94.9128588 15.7774808,95.879408 C18.0640124,96.8459572 20.5334295,97.3292245 23.1858061,97.3292245 C27.0271792,97.3292245 30.3654652,96.4087153 33.2007644,94.5676693 C36.0360635,92.7266232 38.2311009,90.3332993 39.7859424,87.3876256 L23.1858061,60.0482284 C17.6981303,60.232333 13.2394606,62.0043133 9.80966327,65.3642223 C6.3798659,68.7241314 4.66499294,73.1195629 4.66499294,78.5506487 Z" id="Path" fill="#1E1E1E"></path>
                </g>
                <polygon id="Path" fill="#EFEFEF" points="107.70219 2 159 2 159 15.8 140.894891 15.8 140.894891 149.43 159 149.43 159 163 107.70219 163 107.70219 149.43 126.271533 149.43 126.271533 88.71 32.7284672 88.71 32.7284672 149.43 51.529927 149.43 51.529927 163 0 163 0 149.43 18.1051095 149.43 18.1051095 15.8 0 15.8 0 2 51.529927 2 51.529927 15.8 32.7284672 15.8 32.7284672 75.14 126.271533 75.14 126.271533 15.8 107.70219 15.8"></polygon>
            </g>
        </g>
    </g>
</svg>
